<?xml version="1.0" standalone="no"?><svg xmlns="http://www.w3.org/2000/svg" viewBox="0 0 1440 320"><path fill="#e7008a" fill-opacity="1" d="M0,32L8,48C16,64,32,96,48,101.3C64,107,80,85,96,74.7C112,64,128,64,144,64C160,64,176,64,192,85.3C208,107,224,149,240,165.3C256,181,272,171,288,138.7C304,107,320,53,336,80C352,107,368,213,384,213.3C400,213,416,107,432,64C448,21,464,43,480,69.3C496,96,512,128,528,138.7C544,149,560,139,576,133.3C592,128,608,128,624,128C640,128,656,128,672,122.7C688,117,704,107,720,96C736,85,752,75,768,85.3C784,96,800,128,816,122.7C832,117,848,75,864,74.7C880,75,896,117,912,128C928,139,944,117,960,128C976,139,992,181,1008,165.3C1024,149,1040,75,1056,48C1072,21,1088,43,1104,74.7C1120,107,1136,149,1152,181.3C1168,213,1184,235,1200,256C1216,277,1232,299,1248,282.7C1264,267,1280,213,1296,176C1312,139,1328,117,1344,112C1360,107,1376,117,1392,149.3C1408,181,1424,235,1432,261.3L1440,288L1440,320L1432,320C1424,320,1408,320,1392,320C1376,320,1360,320,1344,320C1328,320,1312,320,1296,320C1280,320,1264,320,1248,320C1232,320,1216,320,1200,320C1184,320,1168,320,1152,320C1136,320,1120,320,1104,320C1088,320,1072,320,1056,320C1040,320,1024,320,1008,320C992,320,976,320,960,320C944,320,928,320,912,320C896,320,880,320,864,320C848,320,832,320,816,320C800,320,784,320,768,320C752,320,736,320,720,320C704,320,688,320,672,320C656,320,640,320,624,320C608,320,592,320,576,320C560,320,544,320,528,320C512,320,496,320,480,320C464,320,448,320,432,320C416,320,400,320,384,320C368,320,352,320,336,320C320,320,304,320,288,320C272,320,256,320,240,320C224,320,208,320,192,320C176,320,160,320,144,320C128,320,112,320,96,320C80,320,64,320,48,320C32,320,16,320,8,320L0,320Z"></path></svg>